<?xml version="1.0" standalone="no"?>
<!DOCTYPE svg PUBLIC "-//W3C//DTD SVG 20010904//EN"
 "http://www.w3.org/TR/2001/REC-SVG-20010904/DTD/svg10.dtd">
<svg version="1.0" xmlns="http://www.w3.org/2000/svg"
 width="150.000000pt" height="150.000000pt" viewBox="0 0 150.000000 150.000000"
 preserveAspectRatio="xMidYMid meet">
<metadata>
Created by potrace 1.11, written by Peter Selinger 2001-2013
</metadata>
<g transform="translate(0.000000,150.000000) scale(0.100000,-0.100000)"
fill="#000000" stroke="none">
<path d="M667 1494 c-1 -2 -21 -6 -42 -8 -84 -11 -219 -67 -310 -129 -58 -39
-162 -153 -204 -224 -100 -168 -131 -356 -90 -543 66 -299 303 -523 610 -576
335 -58 675 132 808 450 31 75 34 86 52 200 53 332 -176 689 -511 796 -88 28
-296 51 -313 34z"/>
</g>
</svg>
